<svg width="19" height="19" viewBox="0 0 19 19" fill="none" xmlns="http://www.w3.org/2000/svg">
  <path
    d="M13.0625 2.375C11.685 2.375 10.3629 3.01625 9.49998 4.02958C8.63706 3.01625 7.31498 2.375 5.93748 2.375C3.49915 2.375 1.58331 4.29083 1.58331 6.72917C1.58331 9.72167 4.27498 12.16 8.35206 15.865L9.49998 16.9021L10.6479 15.8571C14.725 12.16 17.4166 9.72167 17.4166 6.72917C17.4166 4.29083 15.5008 2.375 13.0625 2.375ZM9.57915 14.6854L9.49998 14.7646L9.42081 14.6854C5.65248 11.2733 3.16665 9.01708 3.16665 6.72917C3.16665 5.14583 4.35415 3.95833 5.93748 3.95833C7.15665 3.95833 8.34415 4.74208 8.76373 5.82667H10.2441C10.6558 4.74208 11.8433 3.95833 13.0625 3.95833C14.6458 3.95833 15.8333 5.14583 15.8333 6.72917C15.8333 9.01708 13.3475 11.2733 9.57915 14.6854Z"
    fill="#909090" />
</svg>