<svg width="125" height="126" viewBox="0 0 125 126" fill="none" xmlns="http://www.w3.org/2000/svg">
  <path d="M0 0.589844H125V125.59H0V0.589844Z" fill="#F7DF1E" />
  <path
    d="M32.8672 105.049L42.4326 99.2598C44.2783 102.532 45.957 105.3 49.9839 105.3C53.8437 105.3 56.2778 103.791 56.2778 97.9175V57.9771H68.0244V98.0835C68.0244 110.25 60.8926 115.788 50.4873 115.788C41.0903 115.788 35.6357 110.921 32.8667 105.048L32.8672 105.049ZM74.4048 103.79L83.9692 98.2524C86.4873 102.364 89.7598 105.385 95.5488 105.385C100.417 105.385 103.52 102.951 103.52 99.5947C103.52 95.5674 100.332 94.1406 94.9614 91.792L92.0254 90.5322C83.5503 86.9253 77.9287 82.394 77.9287 72.8286C77.9287 64.0181 84.6411 57.3052 95.1299 57.3052C102.598 57.3052 107.968 59.9067 111.827 66.7031L102.681 72.5771C100.666 68.9692 98.4858 67.543 95.1294 67.543C91.689 67.543 89.5073 69.7246 89.5073 72.5771C89.5073 76.1011 91.689 77.5283 96.7231 79.71L99.6597 80.9683C109.645 85.2481 115.267 89.6108 115.267 99.4272C115.267 110 106.96 115.79 95.8003 115.79C84.8926 115.79 77.8442 110.587 74.4043 103.791"
    fill="black" />
</svg>