<?xml version="1.0" encoding="utf-8"?>
<!-- Generator: Adobe Illustrator 24.1.2, SVG Export Plug-In . SVG Version: 6.00 Build 0)  -->
<svg version="1.1" id="work" xmlns="http://www.w3.org/2000/svg" xmlns:xlink="http://www.w3.org/1999/xlink" x="0px" y="0px"
	 viewBox="0 0 2500 2500" style="enable-background:new 0 0 2500 2500;" xml:space="preserve">
<style type="text/css">
	.st0{fill-rule:evenodd;clip-rule:evenodd;fill:#FEA7A8;}
	.st1{fill:none;stroke:#09072B;stroke-width:2;}
	.st2{fill-rule:evenodd;clip-rule:evenodd;fill:#261A5E;}
	.st3{fill:none;stroke:#FFFFFF;stroke-width:2;}
	.st4{fill-rule:evenodd;clip-rule:evenodd;fill:#0F0B47;}
	.st5{opacity:0.3;fill:none;stroke:#FFFFFF;stroke-width:2;enable-background:new    ;}
	.st6{fill-rule:evenodd;clip-rule:evenodd;fill:#3D9BEF;}
	.st7{opacity:0.1;fill-rule:evenodd;clip-rule:evenodd;fill:#0F0B47;enable-background:new    ;}
	.st8{fill-rule:evenodd;clip-rule:evenodd;fill:#E19394;}
	.st9{fill-rule:evenodd;clip-rule:evenodd;fill:#372A7F;}
	.st10{fill-rule:evenodd;clip-rule:evenodd;fill:#54479C;}
	.st11{fill:none;stroke:#0F0B47;stroke-width:2;}
	.st12{fill:none;stroke:#372A7F;stroke-width:2;}
	.st13{fill-rule:evenodd;clip-rule:evenodd;fill:#FFFFFF;}
	.st14{fill:#FFD884;}
	.st15{fill:#FFBF41;}
	.st16{fill:#58B8C0;}
	.st17{fill:#EBD9EC;}
	.st18{fill-rule:evenodd;clip-rule:evenodd;fill:#B3DBC9;}
	.st19{fill-rule:evenodd;clip-rule:evenodd;fill:#BCE6D3;}
	.st20{fill-rule:evenodd;clip-rule:evenodd;fill:#F69800;}
	.st21{opacity:0.5;fill:none;stroke:#FFFFFF;stroke-width:2;enable-background:new    ;}
	.st22{opacity:0.2;fill-rule:evenodd;clip-rule:evenodd;fill:#261A5E;enable-background:new    ;}
	.st23{fill-rule:evenodd;clip-rule:evenodd;fill:#003E8C;}
	.st24{fill-rule:evenodd;clip-rule:evenodd;fill:#08234A;}
	.st25{fill-rule:evenodd;clip-rule:evenodd;fill:#FFFCF8;}
	.st26{fill-rule:evenodd;clip-rule:evenodd;fill:#DBD8FF;}
	.st27{fill-rule:evenodd;clip-rule:evenodd;fill:#C2C0E7;}
	.st28{fill-rule:evenodd;clip-rule:evenodd;fill:#3F38A2;}
	.st29{fill-rule:evenodd;clip-rule:evenodd;fill:#363082;}
	.st30{fill:none;stroke:#FFFFFF;stroke-width:2;stroke-linecap:round;}
	.st31{fill:none;stroke:#DBD8FF;stroke-width:2;stroke-linecap:round;}
	.st32{fill-rule:evenodd;clip-rule:evenodd;fill:#003E8C;stroke:#0F0B47;stroke-width:2;}
	.st33{fill-rule:evenodd;clip-rule:evenodd;fill:#4B55F3;}
	.st34{fill-rule:evenodd;clip-rule:evenodd;fill:#181364;}
	.st35{fill-rule:evenodd;clip-rule:evenodd;fill:#06041A;}
	.st36{opacity:0.6;fill:none;stroke:#FFFFFF;stroke-width:2;enable-background:new    ;}
	.st37{fill-rule:evenodd;clip-rule:evenodd;fill:#FFD422;}
	.st38{fill-rule:evenodd;clip-rule:evenodd;fill:#FFFFFF;stroke:#0F0B47;stroke-width:2;}
	.st39{fill-rule:evenodd;clip-rule:evenodd;fill:#FF0021;}
	.st40{fill:none;stroke:#0F0B47;stroke-width:2;stroke-linecap:round;}
	.st41{fill-rule:evenodd;clip-rule:evenodd;fill:#FEA7A8;stroke:#0F0B47;stroke-width:2;}
	.st42{fill-rule:evenodd;clip-rule:evenodd;fill:#EA0422;}
	.st43{fill-rule:evenodd;clip-rule:evenodd;fill:#0C0936;}
	.st44{fill-rule:evenodd;clip-rule:evenodd;fill:#F3A3A4;}
	.st45{fill-rule:evenodd;clip-rule:evenodd;fill:#0F0B47;stroke:#FFFFFF;stroke-width:2;}
	.st46{fill-rule:evenodd;clip-rule:evenodd;fill:#F7A4A5;}
	.st47{opacity:0.4;fill:none;stroke:#FFFFFF;stroke-width:2;enable-background:new    ;}
	.st48{fill-rule:evenodd;clip-rule:evenodd;fill:#0E8B80;}
	.st49{fill-rule:evenodd;clip-rule:evenodd;fill:#BF4A24;}
	.st50{fill:none;stroke:#FFFCF8;stroke-width:2;}
	.st51{fill:none;stroke:#BF4A24;stroke-width:2;}
	.st52{fill-rule:evenodd;clip-rule:evenodd;fill:#FF77A5;}
	.st53{fill-rule:evenodd;clip-rule:evenodd;fill:#FFC84B;}
	.st54{fill-rule:evenodd;clip-rule:evenodd;fill:#ECB947;}
	.st55{fill-rule:evenodd;clip-rule:evenodd;fill:#0C8076;}
	.st56{fill-rule:evenodd;clip-rule:evenodd;fill:#F9F9F9;}
	.st57{fill:none;stroke:#F9F9F9;stroke-width:2;}
	.st58{fill-rule:evenodd;clip-rule:evenodd;fill:#FF622D;}
	.st59{fill-rule:evenodd;clip-rule:evenodd;fill:#DB4F20;}
	.st60{fill-rule:evenodd;clip-rule:evenodd;fill:#006D85;}
	.st61{fill-rule:evenodd;clip-rule:evenodd;fill:#0094B4;}
	.st62{fill-rule:evenodd;clip-rule:evenodd;fill:#733014;}
	.st63{fill:none;stroke:#733014;stroke-width:2;}
	.st64{opacity:0.1;fill-rule:evenodd;clip-rule:evenodd;enable-background:new    ;}
	.st65{fill-rule:evenodd;clip-rule:evenodd;}
	.st66{fill:none;stroke:#000000;stroke-width:2;}
	.st67{fill-rule:evenodd;clip-rule:evenodd;fill:#4267FF;}
	.st68{fill-rule:evenodd;clip-rule:evenodd;fill:#E19495;}
	.st69{fill-rule:evenodd;clip-rule:evenodd;fill:#202746;}
	.st70{fill-rule:evenodd;clip-rule:evenodd;fill:#2945BB;}
	.st71{fill-rule:evenodd;clip-rule:evenodd;fill:#774033;}
	.st72{fill:none;stroke:#774033;stroke-width:2;}
	.st73{fill-rule:evenodd;clip-rule:evenodd;fill:#EEA013;}
	.st74{fill-rule:evenodd;clip-rule:evenodd;fill:#DB9311;}
	.st75{fill-rule:evenodd;clip-rule:evenodd;fill:#3E60EB;}
	.st76{opacity:0.1;fill-rule:evenodd;clip-rule:evenodd;fill:#FFFFFF;enable-background:new    ;}
	.st77{fill:none;stroke:#261A5E;stroke-width:2;}
	.st78{fill-rule:evenodd;clip-rule:evenodd;fill:#FF5D5C;}
	.st79{fill-rule:evenodd;clip-rule:evenodd;fill:#D95150;}
	.st80{fill-rule:evenodd;clip-rule:evenodd;fill:#03CEFA;}
	.st81{fill-rule:evenodd;clip-rule:evenodd;fill:#03BCE4;}
	.st82{fill-rule:evenodd;clip-rule:evenodd;fill:#402E92;}
	.st83{fill-rule:evenodd;clip-rule:evenodd;fill:#DC678F;}
	.st84{fill-rule:evenodd;clip-rule:evenodd;fill:#98C3AF;}
	.st85{fill-rule:evenodd;clip-rule:evenodd;fill:#19D9EB;}
	.st86{fill-rule:evenodd;clip-rule:evenodd;fill:#13C3D3;}
	.st87{fill-rule:evenodd;clip-rule:evenodd;fill:#10A6B4;}
	.st88{fill-rule:evenodd;clip-rule:evenodd;fill:#FEDD00;}
	.st89{fill-rule:evenodd;clip-rule:evenodd;fill:#358BD7;}
	.st90{fill-rule:evenodd;clip-rule:evenodd;fill:#017F5D;}
	.st91{opacity:0.2;fill:none;stroke:#FFFFFF;stroke-width:2;enable-background:new    ;}
	.st92{fill-rule:evenodd;clip-rule:evenodd;fill:#00976F;}
	.st93{fill-rule:evenodd;clip-rule:evenodd;fill:#FF2200;}
	.st94{fill-rule:evenodd;clip-rule:evenodd;fill:#EE2304;}
	.st95{opacity:0.1;fill-rule:evenodd;clip-rule:evenodd;fill:#002C46;enable-background:new    ;}
	.st96{fill-rule:evenodd;clip-rule:evenodd;fill:#FF81C3;}
	.st97{opacity:0.3;fill-rule:evenodd;clip-rule:evenodd;fill:#BD461E;enable-background:new    ;}
	.st98{fill-rule:evenodd;clip-rule:evenodd;fill:#2F170B;}
	.st99{fill-rule:evenodd;clip-rule:evenodd;fill:#FFC09F;}
	.st100{opacity:0.2;fill-rule:evenodd;clip-rule:evenodd;fill:#6A3D25;enable-background:new    ;}
	.st101{fill-rule:evenodd;clip-rule:evenodd;fill:#6A3D25;}
	.st102{fill-rule:evenodd;clip-rule:evenodd;fill:#284BF2;}
	.st103{fill-rule:evenodd;clip-rule:evenodd;fill:#EB5D2D;}
	.st104{fill-rule:evenodd;clip-rule:evenodd;fill:#FFB34D;}
	.st105{opacity:0.2;fill-rule:evenodd;clip-rule:evenodd;fill:#2F170B;enable-background:new    ;}
	.st106{opacity:0.3;fill-rule:evenodd;clip-rule:evenodd;fill:#2F170B;enable-background:new    ;}
	.st107{fill:none;stroke:#2F170B;stroke-width:2;}
	.st108{fill-rule:evenodd;clip-rule:evenodd;fill:#FF5A59;}
	.st109{fill-rule:evenodd;clip-rule:evenodd;fill:#E94E4D;}
</style>
<g id="_x31_0---guy-and-girl-are-standing-and-laughing">
	<g transform="translate(164.000000, 116.000000)">
		<g id="Group-13">
			<g id="Group-7_6_" transform="translate(103.000000, 148.000000)">
				<g id="Group-5_8_">
					
						<g id="Group-5-Copy_4_" transform="translate(125.309078, 387.951151) rotate(5.000000) translate(-125.309078, -387.951151) translate(75.309078, 352.951151)">
						<g id="Group-4_11_" transform="translate(0.509970, 0.081504)">
							<polygon id="Rectangle_21_" class="st0" points="812.8,1422.1 960.1,1398.9 977.4,1536.5 830,1559.7 							"/>
							<path id="Path-17_8_" class="st1" d="M1032.9,1504.8c8.7-64.3,22.8-94.9,42.5-92c19.7,2.9,4.1,41.4-46.8,115.4
								c39.2-91.3,67.2-122,83.9-92.2c8,14.3-12.5,52.9-75.3,92.5"/>
							<path id="Path-16_8_" class="st33" d="M820.4,1527.1l172.7-71.9c15.6,25.7,36.5,44.1,62.6,55.3
								c39.2,16.7,99.8,28.4,134.1,112.4l-236.5,26.9l-35.6-26.9l0,26.9l-97.3,12.3L820.4,1527.1z"/>
							<g id="Group-9_8_" transform="translate(44.659976, 23.693871)">
								<line id="Path-25_8_" class="st3" x1="937.7" y1="1500.9" x2="992.4" y2="1464.6"/>
								<line id="Path-25-Copy_8_" class="st3" x1="961.6" y1="1511.1" x2="1016.4" y2="1474.8"/>
								<line id="Path-25-Copy-2_8_" class="st3" x1="985.5" y1="1521.3" x2="1040.3" y2="1485"/>
							</g>
						</g>
					</g>
					<g id="Group-6_5_" transform="translate(1.297577, 348.673730)">
						<rect id="Rectangle_20_" x="484.9" y="1461.5" class="st0" width="127.5" height="138.9"/>
						<path id="Path-109_2_" class="st33" d="M486.3,1545.8l-6,19.1c-11.9,37.7-18,77-18,116.6v50.9l0,0h177.1l-4.8-76.6
							c-1.4-22.6-4.8-45-10.2-67l-10.4-42.9l0,0H486.3z"/>
						<line id="Path-5_7_" class="st3" x1="495.9" y1="1638.1" x2="596.6" y2="1638.1"/>
						<line id="Path-5-Copy_2_" class="st3" x1="495.9" y1="1610.4" x2="596.6" y2="1610.4"/>
						<line id="Path-5-Copy-2_2_" class="st3" x1="495.9" y1="1578.6" x2="596.6" y2="1578.6"/>
					</g>
					<path id="Path-130_1_" class="st34" d="M809.1,462.9l36.7,53.1c38.9,102.3,61.1,184.1,66.8,245.2
						c13.7,146.2,24.2,515.1,31.7,1106.8h-206l-1.8-597.1L720,845.2l-28,428.1L664.4,1868H458.5c17.4-636.6,38.3-1010.5,62.6-1121.8
						c11.6-53.1,44.1-129.9,97.3-230.2l-2.2-53.1H809.1z"/>
					<path id="Path-2_7_" class="st5" d="M475.4,1868l49.8-987.2c1.6-31.7,7.7-63,18.1-92.9l11.6-33.5c2.7-7.8,5.1-15.6,7.3-23.5
						l32.6-117.5l0,0"/>
					<line id="Path-3_6_" class="st3" x1="720" y1="856.8" x2="741.8" y2="736"/>
					<line id="Path-4_8_" class="st5" x1="773.4" y1="1868" x2="720" y2="819.8"/>
				</g>
			</g>
			
				<g id="Group-17_1_" transform="translate(62.015392, 103.159198) scale(-1, 1) rotate(-62.000000) translate(-62.015392, -103.159198) translate(-5.984608, 70.159198)">
				<g id="Group-12_5_" transform="translate(0.244899, 0.787740)">
					<path id="Path-198_3_" class="st0" d="M-501.9-119.7l195.4,40.2c8.6-10.3,18.9-19.1,30.9-26.2l32.7-26.2
						c4-3.2,9.8-2.7,13.2,1.1c3.4,3.8,3.3,9.6-0.3,13.2l-21.9,22.4l9.8,1.9c23.7,4.5,47.9,6,72,4.5l27.5-1.6
						c4.9-0.3,9.2,3.3,9.8,8.2c0.5,4.9-2.9,9.3-7.8,9.9l-44.9,5.6c-8.4,1-16.8,1.7-25.2,2l-4.2,0.1c9.5,4.5,20,6.8,30.5,6.7
						l44.2-0.6c5.4-0.1,9.8,4.1,10.1,9.5c0.3,5.3-3.8,9.9-9.2,10.1l-59,3.2l-15.9,1c11.6,2.8,23.4,4.2,35.3,4l34.6-0.3
						c5.2,0,9.5,4,9.8,9.1c0.3,4.7-3.2,8.9-7.8,9.4l-0.9,0.1l-44.7,1.5c-2.2,0.1-4.3,0.1-6.5,0.2l-25.1,0.4L-210-7
						c8.6,3.1,17.4,5.6,26.3,7.5l7.6,1.7c3.1,0.7,5,3.7,4.3,6.7l-0.1,0.3c-0.9,3.3-4.1,5.5-7.5,5.1l-7.8-0.8
						c-9.1-0.9-18.1-2.5-27-4.7l-24.4-6.1L-301-6.3l-248.2-8.5c-16,0.2-57.7-10.2-76.4-21.7c-18.6-11.5-25.2-43.6-22.9-62.4
						c1.5-12.6,15.9-57.7,43.1-135.3l138,15.8L-501.9-119.7z"/>
					<path id="Path-12_3_" class="st11" d="M-251.9-95.2c0.9,35.3-15.7,52.9-49.9,52.9"/>
					<path id="Path-13_3_" class="st11" d="M-219.3-75.5c3,22.5,1.7,44.3-4,65.4"/>
					<path id="Path-14_3_" class="st11" d="M-217.7-64.9c15.8,0.2,27.3-0.4,34.5-1.8"/>
					<line id="Path-15_3_" class="st11" x1="-217.7" y1="-35.9" x2="-188.3" y2="-35.9"/>
					<line id="Path-18_3_" class="st11" x1="-223.3" y1="-10" x2="-188.3" y2="-10"/>
					<line id="Path-28_4_" class="st11" x1="-501.9" y1="-119.7" x2="-547.7" y2="-105.7"/>
				</g>
			</g>
			
				<g id="Group-17-Copy_1_" transform="translate(276.855956, 103.151605) rotate(-65.000000) translate(-276.855956, -103.151605) translate(208.855956, 70.151605)">
				<g id="Group-12_4_" transform="translate(0.244899, 0.787740)">
					<path id="Path-198_2_" class="st0" d="M54.7,1032.7l195.4,40.2c8.6-10.3,18.9-19.1,30.9-26.2l32.7-26.2c4-3.2,9.8-2.7,13.2,1.1
						c3.4,3.8,3.3,9.6-0.3,13.2l-21.9,22.4l9.8,1.9c23.7,4.5,47.9,6,72,4.5l27.5-1.6c4.9-0.3,9.2,3.3,9.8,8.2
						c0.5,4.9-2.9,9.3-7.8,9.9l-44.9,5.6c-8.4,1-16.8,1.7-25.2,2l-4.2,0.1c9.5,4.5,20,6.8,30.5,6.7l44.2-0.6
						c5.4-0.1,9.8,4.1,10.1,9.5c0.3,5.3-3.8,9.9-9.2,10.1l-59,3.2l-15.9,1c11.6,2.8,23.4,4.2,35.3,4l34.6-0.3c5.2,0,9.5,4,9.8,9.1
						c0.3,4.7-3.2,8.9-7.8,9.4l-0.9,0.1l-44.7,1.5c-2.2,0.1-4.3,0.1-6.5,0.2L337,1142l9.6,3.4c8.6,3.1,17.4,5.6,26.3,7.5l7.6,1.7
						c3.1,0.7,5,3.7,4.3,6.7l-0.1,0.3c-0.9,3.3-4.1,5.5-7.5,5.1l-7.8-0.8c-9.1-0.9-18.1-2.5-27-4.7l-24.4-6.1l-62.5-9.1l-248.2-8.5
						c-16,0.2-57.7-10.2-76.4-21.7s-25.2-43.6-22.9-62.4c1.5-12.6,15.9-57.7,43.1-135.3l138,15.8L54.7,1032.7z"/>
					<path id="Path-12_2_" class="st11" d="M304.6,1057.2c0.9,35.3-15.7,52.9-49.9,52.9"/>
					<path id="Path-13_2_" class="st11" d="M337.3,1076.9c3,22.5,1.7,44.3-4,65.4"/>
					<path id="Path-14_2_" class="st11" d="M338.9,1087.5c15.8,0.2,27.3-0.4,34.5-1.8"/>
					<line id="Path-15_2_" class="st11" x1="338.9" y1="1116.5" x2="368.3" y2="1116.5"/>
					<line id="Path-18_2_" class="st11" x1="333.2" y1="1142.3" x2="368.3" y2="1142.3"/>
					<line id="Path-28_3_" class="st11" x1="54.7" y1="1032.7" x2="8.9" y2="1046.7"/>
				</g>
			</g>
			<path id="Path-218" class="st67" d="M703.5,319.5h223.3c14.3,0,28.4,3.5,41.1,10.3c12.8,6.9,24.5,15.4,34.9,25.5l131.9,128l0,0
				l-98.9,105.4l-55.9-38.6l11.9,144.3c1.9,23.1-4.6,46.2-18.3,64.9l0,0l0,0c-33.1,23.3-79.9,34.9-140.5,34.9
				c-60.6,0-110.2-10.2-148.7-30.7c-17.4-21.5-26.9-48.3-27-75.9l-0.4-137.4l0,0l-47,42.3l-110.1-109l116.4-117.4
				c12.1-12.2,25.5-23.1,40-32.4C670.1,324.3,686.6,319.5,703.5,319.5z"/>
			<polygon id="Path_65_" class="st75" points="970.2,473.9 1076,545.8 1035.7,588.7 979.8,550.1 			"/>
			<path id="Path_64_" class="st75" d="M714.2,495.4c-19.6,114.5-1.1,207.1,55.5,231.5c78.3,33.7,157.8,36.5,210,22.3
				c-1.6,3-3.4,5.8-5.4,8.6l-1.1,1.5c-33.1,23.3-79.9,34.9-140.5,34.9c-60.6,0-110.2-10.2-148.7-30.7c-17.4-21.5-27-48.3-27-75.9
				l-0.4-137.4l-4.9,4.4L714.2,495.4z"/>
			<g id="Group-14" transform="translate(147.033708, 0.000000)">
				<g id="Group-11_3_" transform="translate(0.966292, 0.000000)">
					<g id="Group-2_7_">
						<path id="Path-217" class="st2" d="M603,185.2c-14-29.4-15.6-48.7-4.6-57.9c4.5-42.5,31.8-70,81.9-82.7
							c75.1-19,97.6,15.8,100.9,30.6c3.3,14.8,0.2,41.2-21.5,52.2c5.3,22.1,1.6,42.9-11,62.4L603,185.2z"/>
						<path id="Combined-Shape" class="st76" d="M623.5,102.7c3.4,14.5,12,23.9,25.8,28.2c20.6,6.4-25.8,52.3-34.3,23
							C609.2,134.3,612.1,117.3,623.5,102.7z"/>
						<path id="Path_63_" class="st76" d="M781.3,75.1c2.8,12.3,1.1,32.5-11.9,45.4c-7.7,6.1-11,9.8-31.8,10.5
							c-2.8,0.1-4.5,2.5-8.1,2.7c25.9-16.5,38.8-31.9,38.8-46.4c0-18.9-10.1-39.4-33.8-47.4C767.1,44.5,778.9,64.8,781.3,75.1z"/>
						<path id="Path-216" class="st8" d="M614.9,190.5c-5.9-9.5-12.6-14.2-20.1-14.2c-11.2,0-13.4,35.2,20.1,46.2V190.5z"/>
						<path id="Path-216-Copy" class="st8" d="M742.5,193.9c4-9.5,9.8-14.2,17.2-14.2c11.2,0,16.2,35.2-17.2,46.2V193.9z"/>
						<path id="Rectangle_19_" class="st8" d="M638.9,264.4h75.6v62.9c0,20.9-16.9,37.8-37.8,37.8s-37.8-16.9-37.8-37.8V264.4
							L638.9,264.4z"/>
						<path id="Path-207" class="st0" d="M610.2,166.8l1.8,54.1c0.6,19.6,7.9,38.3,20.5,53.3l4.5,5.3c9.5,11.3,23.6,17.8,38.3,17.8
							c14.9,0,29.1-6.1,39.5-16.8l6.1-6.3c14.3-14.9,22.6-34.5,23.3-55.1l2.2-68.5c0.2-7.5-3-14.8-8.9-19.6l0,0l0,0
							c-49.5,5.7-84.4,2.9-104.9-8.3C618.1,132.6,609.6,149.3,610.2,166.8z"/>
						<g id="Group-12_2_" transform="translate(6.221130, 30.507631)">
							<path id="Rectangle-Copy-2_6_" class="st2" d="M691.3,128.2l20.7,4c1.7,0.3,2.8,2,2.5,3.7c0,0,0,0,0,0.1
								c-0.4,1.7-2.1,2.9-3.8,2.5l-20.7-4c-1.7-0.3-2.8-2-2.5-3.7c0,0,0,0,0-0.1C687.9,128.9,689.5,127.8,691.3,128.2z"/>
							<path id="Rectangle-Copy-3_6_" class="st2" d="M648.8,128.2l-20.7,4c-1.7,0.3-2.8,2-2.5,3.7c0,0,0,0,0,0.1
								c0.4,1.7,2.1,2.9,3.8,2.5l20.7-4c1.7-0.3,2.8-2,2.5-3.7c0,0,0,0,0-0.1C652.3,128.9,650.6,127.8,648.8,128.2z"/>
							<ellipse id="Oval-Copy-2_2_" class="st4" cx="696.2" cy="163.3" rx="5.2" ry="5.1"/>
							<ellipse id="Oval-Copy-3_3_" class="st4" cx="644.7" cy="163.3" rx="5.2" ry="5.1"/>
							<path id="Path-202" class="st13" d="M649.9,213.7h41.2c-5,13.9-11.8,20.8-20.6,20.8C661.7,234.5,654.8,227.6,649.9,213.7z"/>
							<g id="Group_10_" transform="translate(0.000000, 3.759709)">
								<ellipse id="Oval_20_" class="st30" cx="697.9" cy="157.9" rx="20.6" ry="20.8"/>
								<ellipse id="Oval-Copy_6_" class="st30" cx="643" cy="157.9" rx="20.6" ry="20.8"/>
								<line id="Path-205" class="st30" x1="718.6" y1="157.9" x2="740.6" y2="150.9"/>
								<line id="Path-205-Copy" class="st30" x1="605.2" y1="148.9" x2="622.4" y2="157.9"/>
								<line id="Path-204" class="st30" x1="663.6" y1="157.9" x2="677.3" y2="157.9"/>
							</g>
							<path id="Path-203" class="st11" d="M664.5,187.9c-2.4,9.7,0.2,14.6,7.7,14.6"/>
						</g>
						<path id="Path-6_4_" class="st3" d="M638.9,322.4c1.2,26.3,11.7,40.6,31.6,42.7c29.8,3.2,44-22.9,44-32.8"/>
					</g>
				</g>
			</g>
			<line id="Path-11_3_" class="st11" x1="650.4" y1="558.4" x2="720.1" y2="484.9"/>
			<line id="Path-19_2_" class="st11" x1="970.2" y1="461.2" x2="979.8" y2="550.1"/>
			<line id="Path-10_4_" class="st3" x1="508.4" y1="466.2" x2="618.3" y2="573.6"/>
			<line id="Path-20_2_" class="st3" x1="1026.4" y1="579.7" x2="1122.1" y2="473.9"/>
		</g>
		<g id="Group-10_1_" transform="translate(210.000000, 15.000000)">
			<g id="Group-3_5_" transform="translate(65.805269, 0.000000)">
				<path id="Path-201" class="st2" d="M1143.5,114.6c-35.4-34.9-70.7-41.8-105.9-20.8c-35.2,21-50.9,54.4-47,100.2
					c0,24.2-7.1,48.9-21.2,74.3c-21.2,38.1-43.1,120.5,89.7,128.6s199.2-46.3,148.8-128.6c-13.1-19.9-19.6-37.9-19.6-54.2
					C1188.3,189.7,1180.7,114.6,1143.5,114.6z"/>
				<path id="Path-200" class="st8" d="M1017.5,232.4c-8-9.1-15.4-12-22.3-8.6c-10.2,5.1-4,42.5,27.8,35.1
					C1044.2,254.1,1042.3,245.2,1017.5,232.4z"/>
				<path id="Path-200-Copy" class="st8" d="M1157.7,232.4c8-9.1,15.4-12,22.3-8.6c10.2,5.1,4,42.5-27.8,35.1
					C1130.9,254.1,1132.8,245.2,1157.7,232.4z"/>
				<path id="Rectangle_18_" class="st8" d="M1045.4,291.8h73.4l7.7,104.3c-21.5,1-37.6,1.6-48.4,1.6s-24.2-0.5-40.5-1.6
					L1045.4,291.8z"/>
				<path id="Path-199" class="st0" d="M1008.3,191.3c3.2,33.1,6.9,56,11,68.8c12.5,38.8,37,61.1,62.4,62.7c57,3.6,82-72.1,82-123.7
					c-16.9-11.9-27.9-27.5-33.1-46.9c-12.5-5.6-28.8,2.1-48.9,23C1061.6,196.2,1037.1,201.5,1008.3,191.3z"/>
				<g id="Group-12_3_" transform="translate(14.802657, 28.109837)">
					<path id="Rectangle-Copy-2_5_" class="st2" d="M1092.7,164.5l23.3,4.5c1.9,0.4,3.1,2.2,2.8,4.1c0,0,0,0,0,0.1
						c-0.4,1.9-2.3,3.2-4.3,2.8l-23.3-4.5c-1.9-0.4-3.1-2.2-2.8-4.1c0,0,0,0,0-0.1C1088.8,165.3,1090.7,164.1,1092.7,164.5z"/>
					<path id="Rectangle-Copy-3_5_" class="st2" d="M1044.9,164.5l-23.3,4.5c-1.9,0.4-3.1,2.2-2.8,4.1c0,0,0,0,0,0.1
						c0.4,1.9,2.3,3.2,4.3,2.8l23.3-4.5c1.9-0.4,3.1-2.2,2.8-4.1c0,0,0,0,0-0.1C1048.8,165.3,1046.9,164.1,1044.9,164.5z"/>
					<ellipse id="Oval-Copy-2_1_" class="st4" cx="1098.2" cy="203.6" rx="5.8" ry="5.7"/>
					<ellipse id="Oval-Copy-3_2_" class="st4" cx="1040.3" cy="203.6" rx="5.8" ry="5.7"/>
					<path id="Path-202_1_" class="st13" d="M1046.1,248.2h46.4c-5.6,15.5-13.3,23.2-23.2,23.2
						C1059.4,271.4,1051.7,263.7,1046.1,248.2z"/>
					<g id="Group_9_" transform="translate(0.000000, 4.190103)">
						<circle id="Oval_19_" class="st30" cx="1100.2" cy="197.7" r="23.2"/>
						<circle id="Oval-Copy_5_" class="st30" cx="1038.4" cy="197.7" r="23.2"/>
						<line id="Path-205_1_" class="st30" x1="1123.4" y1="197.7" x2="1148.9" y2="192"/>
						<line id="Path-205-Copy_1_" class="st30" x1="995.8" y1="190.1" x2="1015.2" y2="197.7"/>
						<line id="Path-204_1_" class="st30" x1="1061.6" y1="197.7" x2="1077" y2="197.7"/>
					</g>
					<path id="Path-203_1_" class="st11" d="M1062.5,219.4c-2.7,10.8,0.2,16.2,8.7,16.2"/>
				</g>
				<path id="Path-206" class="st77" d="M1008.3,191.3c24.1,16.6,62.1,8.1,79.6-16.2c11.7-16.2,25.7-24.4,42-24.7
					c3.2,28.2,14.5,44.4,33.8,48.6"/>
			</g>
			<g id="Group-8_4_" transform="translate(32.130227, 159.408285)">
				<g id="Group-7_5_" transform="translate(0.675042, 0.591715)">
					
						<g id="Group-5-Copy_3_" transform="translate(148.208049, 357.954656) rotate(5.000000) translate(-148.208049, -357.954656) translate(95.208049, 325.954656)">
						<g id="Group-4_10_" transform="translate(0.542977, 0.074087)">
							<polygon id="Rectangle_17_" class="st0" points="1267.9,1379.2 1424.8,1358.1 1443.2,1483.2 1286.3,1504.3 							"/>
							<path id="Path-17_7_" class="st1" d="M1502.4,1454.4c9.2-58.4,24.3-86.3,45.3-83.6c20.9,2.7,4.3,37.6-49.8,104.9
								c41.8-83,71.6-110.9,89.3-83.8c8.5,13-13.3,48.1-80.2,84.1"/>
							<path id="Path-16_7_" class="st2" d="M1276,1474.7l183.9-65.4c16.6,23.4,38.8,40.1,66.7,50.2
								c41.8,15.2,106.3,25.9,142.7,102.1l-251.8,24.5l-37.9-24.5v24.5l-103.6,11.1L1276,1474.7z"/>
							<g id="Group-9_7_" transform="translate(47.550561, 21.537609)">
								<line id="Path-25_7_" class="st3" x1="1400.9" y1="1450.9" x2="1459.3" y2="1417.9"/>
								<line id="Path-25-Copy_7_" class="st3" x1="1426.4" y1="1460.1" x2="1484.7" y2="1427.1"/>
								<line id="Path-25-Copy-2_7_" class="st3" x1="1451.9" y1="1469.4" x2="1510.2" y2="1436.4"/>
							</g>
						</g>
					</g>
					<g id="Group-6_4_" transform="translate(14.242050, 325.488727)">
						<rect id="Rectangle_16_" x="923.9" y="1472.4" class="st0" width="135.8" height="126.3"/>
						<path id="Path-109_1_" class="st2" d="M925.3,1549l-1.5,4.1c-15.9,43-24.1,88.4-24.1,134.3v31.2l0,0h188.6l-4.5-61.1
							c-1.9-26.2-6.5-52.1-13.7-77.4l-8.9-31.1l0,0H925.3z"/>
						<line id="Path-5_6_" class="st3" x1="935.6" y1="1633" x2="1042.8" y2="1633"/>
						<line id="Path-5-Copy_1_" class="st3" x1="935.6" y1="1607.7" x2="1042.8" y2="1607.7"/>
						<line id="Path-5-Copy-2_1_" class="st3" x1="935.6" y1="1578.9" x2="1042.8" y2="1578.9"/>
					</g>
					<g id="Group-3_4_">
						<path id="Path-108" class="st78" d="M1014.9,543.8l-7.1,40.7c-60,111.8-96.8,247.8-110.6,407.9
							c-13.7,160.1-26.5,442.8-38.2,848.2h274.6l21.4-967.2l39.6,967.2h287.6c-33.3-418.5-61.3-701.2-84.1-848.2
							c-22.8-146.9-59.7-282.9-110.6-407.9l-12.4-44.3L1014.9,543.8z"/>
						<path id="Path_62_" class="st79" d="M1154.9,875.9l-2.6-99.8l5.4,30.1c88.1,488,134.5,832.8,139.3,1034.4h-102.5L1155,873.3
							L1154.9,875.9z"/>
						<path id="Path-117" class="st47" d="M914,1837.4c-0.3-676.5,42.4-1091.8,128.1-1245.8"/>
						<path id="Path-117-Copy" class="st47" d="M959.2,1837.4c-0.3-676.5,42.4-1091.8,128.1-1245.8"/>
					</g>
				</g>
			</g>
			
				<g id="Group-5_7_" transform="translate(207.305269, 93.000000) rotate(3.000000) translate(-207.305269, -93.000000) translate(156.805269, 28.000000)">
				<path id="Path-208" class="st0" d="M1300.7,412.5l46.9,36.9l151.7-214.9c10.4-14.8,18-31.4,22.3-48.9l2-8.1
					c2.1-8.4,10.6-13.6,19-11.5c1,0.2,1.9,0.6,2.8,1l0,0l0,0l31.9-70.1c1.6-3.5,5.7-5,9.1-3.5c3.6,1.6,5.5,5.6,4.4,9.4l-21.8,77l0,0
					l32.8-70.4c1.8-3.9,6.4-5.7,10.4-4.1c4,1.6,6,6.1,4.5,10.1l-27.2,74.5l0,0l14.8,7.2c6.8,3.4,9.7,11.5,6.5,18.4
					c-14.8,32.1-24.1,51.3-28,57.4c-4.3,6.9-15,9.6-31.9,8.3l-127,256.1c-10.4,21-29.4,36.5-52,42.6c-22.2,5.9-45.9,0.1-62.7-15.5
					l-78.1-72l0,0L1300.7,412.5z"/>
				<path id="Path-209" class="st11" d="M1545.5,166.9l33.6,17.7c3,1.6,4.2,5.4,2.6,8.4c-0.4,0.8-0.9,1.4-1.6,1.9
					c-4.7,3.7-10.8,5.1-16.6,3.8l-14.6-3.5l0,0c12.1,19.5,10.5,38.2-4.8,56.2"/>
				<path id="Path-210" class="st11" d="M1589.8,188.6l-20.6,31.2c-2.1,3.1-1.2,7.4,1.9,9.5c0.5,0.3,1,0.6,1.5,0.7
					c4.8,1.7,10.2-0.1,13-4.4l18.8-28.5l0,0"/>
				<path id="Path-211" class="st11" d="M1590.6,219l-1.8,2.6c-2.3,3.4-1.5,8,1.9,10.3c0.1,0,0.1,0.1,0.2,0.1c3.6,2.3,8.4,1.5,11-2
					l6.6-8.9l0,0"/>
				<line id="Path-5_5_" class="st11" x1="1347.7" y1="449.4" x2="1349.9" y2="491.6"/>
			</g>
			<polygon id="Rectangle-Copy-4_2_" class="st2" points="1120,398.6 1144.1,386.3 1372.4,834.4 1349.7,849.4 			"/>
			<polygon id="Path_61_" class="st65" points="1345.5,781.7 1353,796.4 1324.8,800.6 1318.5,788.3 			"/>
			<path id="Path-207-Copy" class="st80" d="M1011.7,415.9l72.6-21.5c28.2-8.3,57.3-13.4,86.6-15.2l58.4-3.5c22.7-1.3,45.4-0.7,68,2
				l0.7,0.1c22.4,2.6,43.4,12.7,59.5,28.6l100.3,98.9l0,0l-91.2,85.4l-45.1-35.3l-6.2,148.4c-0.8,20.1-11,38.6-27.4,50.1l0,0l0,0
				c-41.6,15.8-87.1,25.6-136.6,29.4c-49.5,3.8-87.7-1.8-114.7-16.9c-14.8-17.1-22.6-39.2-21.9-61.8l2.7-84.9l0,0L998,662.7
				l-137.1-31.5l72.8-160.8c6.7-14.8,18-27.1,32.1-35.1C980.4,427.2,995.7,420.7,1011.7,415.9z"/>
			<path id="Path_60_" class="st81" d="M1016.6,621.8l14.4-47.4l0,5.2c0.4,84.4,13.1,128.2,45.7,131.6l3.1,0.3
				c51.4,5,174.1,9.6,233.6-22.9l2.6-1.5l-0.7,16.8c-0.8,19.6-10.5,37.7-26.2,49.3l-1.2,0.9c-41.6,15.8-87.1,25.6-136.6,29.4
				c-49.5,3.8-87.7-1.8-114.7-16.9c-14.8-17.1-22.6-39.2-21.9-61.8l2.7-84.9L1016.6,621.8z"/>
			<polygon id="Rectangle_15_" class="st2" points="1064.7,427.7 1298,885.5 1273.9,897.8 1041.3,441.4 			"/>
			<path id="Path_59_" class="st8" d="M1236.1,376.2l-0.2,0.4l-0.6,1.5c-8.9,21.4-35.9,52.1-93.2,57.6c-41.2,3.9-68.9-7.3-83-33.8
				l25.1-7.4c28.2-8.3,57.3-13.4,86.6-15.2l43.2-2.6C1221.4,376.3,1228.8,376.1,1236.1,376.2z"/>
			<path id="Path-7_5_" class="st82" d="M1179.6,825.3l197.9-46.5l13.3,32.2c19.4,47.1-3,101.1-50.2,120.5c-3.4,1.4-7,2.6-10.6,3.6
				c-56.7,15.7-115.9-14.9-136-70.2L1179.6,825.3L1179.6,825.3z"/>
			<path id="Path-7-Copy_1_" class="st66" d="M1205.5,834.9l158.5-38.1l11.2,27.7c15.5,38.4-3.1,82.2-41.5,97.7
				c-2.5,1-5.1,1.9-7.6,2.6c-45.3,12.8-92.7-11.7-108.4-56L1205.5,834.9L1205.5,834.9z"/>
			<path id="Path_58_" class="st2" d="M1052.5,403.9l186.3,365.6c-8.9,2.3-18,4.3-27.3,6l-185.4-363.8L1052.5,403.9z"/>
			
				<g id="Group-5_6_" transform="translate(71.000000, 174.528859) rotate(-16.000000) translate(-71.000000, -174.528859) translate(10.000000, 131.528859)">
				<path id="Path-104" class="st0" d="M707,706.8l-77.3,98.8c-20.9,26.7-24.8,62.9-10.2,93.4c14.7,30.8,44.9,51.2,79,53.4
					l150.3,9.7c25.9,1.7,50.9,10.4,72.2,25.2l4.8,3.3c18.5,12.9,38.3,23.6,59.2,32l25.7,10.3c3.1,1.2,6.6-0.3,7.8-3.3
					c0,0,0-0.1,0.1-0.1c1.2-3.3-0.2-7-3.3-8.7l-36.3-19.9l0,0l36.4,1.6c8,0.3,15.2-4.6,17.8-12.1l0,0l0,0c5-2.2,9-6.2,11.2-11.2
					l0.6-1.3c2.2-4.8,0-10.5-4.9-12.7c-0.1,0-0.2-0.1-0.3-0.1l-27-11l0,0l37.1,5.5c5.7,0.8,11.2-2.4,13.1-7.8
					c1.7-4.7-0.7-9.9-5.4-11.7c-0.2-0.1-0.4-0.2-0.7-0.2l-44.2-12.5l0,0l-23.4-6.9l-3.8-16.8l-20.5-1.5l-49.8-5.7l-168.9-43.9
					l69.4-85.8L707,706.8z"/>
				<line id="Path-105" class="st11" x1="988.2" y1="979.8" x2="1033.4" y2="990.3"/>
				<line id="Path-4_7_" class="st11" x1="981.1" y1="915.9" x2="1013" y2="927.3"/>
				<path id="Path-2_6_" class="st11" d="M667.4,854.2c35.5-8.7,68-7.8,97.6,2.6"/>
			</g>
			<line id="Path-212" class="st11" x1="1016.6" y1="621.8" x2="1031.8" y2="564.7"/>
			<polygon id="Path-213" class="st81" points="1321.5,555.4 1321.5,513.2 1395.1,563.9 1366.6,590.7 			"/>
			<line id="Path-214" class="st11" x1="1321.5" y1="492.2" x2="1321.5" y2="561.9"/>
			<path id="Path-215" class="st3" d="M1059.1,401.9c21.3,32.1,55,42.7,101.1,32.1c41-9.5,65.5-29.1,73.5-58.7"/>
			<line id="Path-8_4_" class="st3" x1="860.9" y1="617.9" x2="996.8" y2="648.4"/>
			<line id="Path-9_4_" class="st3" x1="1358.3" y1="581.8" x2="1449.1" y2="492.2"/>
		</g>
	</g>
</g>
</svg>
