<?xml version="1.0" encoding="utf-8"?>
<!-- Generator: Adobe Illustrator 24.1.2, SVG Export Plug-In . SVG Version: 6.00 Build 0)  -->
<svg version="1.1" id="work" xmlns="http://www.w3.org/2000/svg" xmlns:xlink="http://www.w3.org/1999/xlink" x="0px" y="0px"
	 viewBox="0 0 2500 2500" style="enable-background:new 0 0 2500 2500;" xml:space="preserve">
<style type="text/css">
	.st0{fill-rule:evenodd;clip-rule:evenodd;fill:#FEA7A8;}
	.st1{fill:none;stroke:#09072B;stroke-width:2;}
	.st2{fill-rule:evenodd;clip-rule:evenodd;fill:#261A5E;}
	.st3{fill:none;stroke:#FFFFFF;stroke-width:2;}
	.st4{fill-rule:evenodd;clip-rule:evenodd;fill:#0F0B47;}
	.st5{opacity:0.3;fill:none;stroke:#FFFFFF;stroke-width:2;enable-background:new    ;}
	.st6{fill-rule:evenodd;clip-rule:evenodd;fill:#3D9BEF;}
	.st7{opacity:0.1;fill-rule:evenodd;clip-rule:evenodd;fill:#0F0B47;enable-background:new    ;}
	.st8{fill-rule:evenodd;clip-rule:evenodd;fill:#E19394;}
	.st9{fill-rule:evenodd;clip-rule:evenodd;fill:#372A7F;}
	.st10{fill-rule:evenodd;clip-rule:evenodd;fill:#54479C;}
	.st11{fill:none;stroke:#0F0B47;stroke-width:2;}
	.st12{fill:none;stroke:#372A7F;stroke-width:2;}
	.st13{fill-rule:evenodd;clip-rule:evenodd;fill:#FFFFFF;}
	.st14{fill:#FFD884;}
	.st15{fill:#FFBF41;}
	.st16{fill:#58B8C0;}
	.st17{fill:#EBD9EC;}
	.st18{fill-rule:evenodd;clip-rule:evenodd;fill:#B3DBC9;}
	.st19{fill-rule:evenodd;clip-rule:evenodd;fill:#BCE6D3;}
	.st20{fill-rule:evenodd;clip-rule:evenodd;fill:#F69800;}
	.st21{opacity:0.5;fill:none;stroke:#FFFFFF;stroke-width:2;enable-background:new    ;}
	.st22{opacity:0.2;fill-rule:evenodd;clip-rule:evenodd;fill:#261A5E;enable-background:new    ;}
	.st23{fill-rule:evenodd;clip-rule:evenodd;fill:#003E8C;}
	.st24{fill-rule:evenodd;clip-rule:evenodd;fill:#08234A;}
	.st25{fill-rule:evenodd;clip-rule:evenodd;fill:#FFFCF8;}
	.st26{fill-rule:evenodd;clip-rule:evenodd;fill:#DBD8FF;}
	.st27{fill-rule:evenodd;clip-rule:evenodd;fill:#C2C0E7;}
	.st28{fill-rule:evenodd;clip-rule:evenodd;fill:#3F38A2;}
	.st29{fill-rule:evenodd;clip-rule:evenodd;fill:#363082;}
	.st30{fill:none;stroke:#FFFFFF;stroke-width:2;stroke-linecap:round;}
	.st31{fill:none;stroke:#DBD8FF;stroke-width:2;stroke-linecap:round;}
	.st32{fill-rule:evenodd;clip-rule:evenodd;fill:#003E8C;stroke:#0F0B47;stroke-width:2;}
	.st33{fill-rule:evenodd;clip-rule:evenodd;fill:#4B55F3;}
	.st34{fill-rule:evenodd;clip-rule:evenodd;fill:#181364;}
	.st35{fill-rule:evenodd;clip-rule:evenodd;fill:#06041A;}
	.st36{opacity:0.6;fill:none;stroke:#FFFFFF;stroke-width:2;enable-background:new    ;}
	.st37{fill-rule:evenodd;clip-rule:evenodd;fill:#FFD422;}
	.st38{fill-rule:evenodd;clip-rule:evenodd;fill:#FFFFFF;stroke:#0F0B47;stroke-width:2;}
	.st39{fill-rule:evenodd;clip-rule:evenodd;fill:#FF0021;}
	.st40{fill:none;stroke:#0F0B47;stroke-width:2;stroke-linecap:round;}
	.st41{fill-rule:evenodd;clip-rule:evenodd;fill:#FEA7A8;stroke:#0F0B47;stroke-width:2;}
	.st42{fill-rule:evenodd;clip-rule:evenodd;fill:#EA0422;}
	.st43{fill-rule:evenodd;clip-rule:evenodd;fill:#0C0936;}
	.st44{fill-rule:evenodd;clip-rule:evenodd;fill:#F3A3A4;}
	.st45{fill-rule:evenodd;clip-rule:evenodd;fill:#0F0B47;stroke:#FFFFFF;stroke-width:2;}
	.st46{fill-rule:evenodd;clip-rule:evenodd;fill:#F7A4A5;}
	.st47{opacity:0.4;fill:none;stroke:#FFFFFF;stroke-width:2;enable-background:new    ;}
	.st48{fill-rule:evenodd;clip-rule:evenodd;fill:#0E8B80;}
	.st49{fill-rule:evenodd;clip-rule:evenodd;fill:#BF4A24;}
	.st50{fill:none;stroke:#FFFCF8;stroke-width:2;}
	.st51{fill:none;stroke:#BF4A24;stroke-width:2;}
	.st52{fill-rule:evenodd;clip-rule:evenodd;fill:#FF77A5;}
	.st53{fill-rule:evenodd;clip-rule:evenodd;fill:#FFC84B;}
	.st54{fill-rule:evenodd;clip-rule:evenodd;fill:#ECB947;}
	.st55{fill-rule:evenodd;clip-rule:evenodd;fill:#0C8076;}
	.st56{fill-rule:evenodd;clip-rule:evenodd;fill:#F9F9F9;}
	.st57{fill:none;stroke:#F9F9F9;stroke-width:2;}
	.st58{fill-rule:evenodd;clip-rule:evenodd;fill:#FF622D;}
	.st59{fill-rule:evenodd;clip-rule:evenodd;fill:#DB4F20;}
	.st60{fill-rule:evenodd;clip-rule:evenodd;fill:#006D85;}
	.st61{fill-rule:evenodd;clip-rule:evenodd;fill:#0094B4;}
	.st62{fill-rule:evenodd;clip-rule:evenodd;fill:#733014;}
	.st63{fill:none;stroke:#733014;stroke-width:2;}
	.st64{opacity:0.1;fill-rule:evenodd;clip-rule:evenodd;enable-background:new    ;}
	.st65{fill-rule:evenodd;clip-rule:evenodd;}
	.st66{fill:none;stroke:#000000;stroke-width:2;}
	.st67{fill-rule:evenodd;clip-rule:evenodd;fill:#4267FF;}
	.st68{fill-rule:evenodd;clip-rule:evenodd;fill:#E19495;}
	.st69{fill-rule:evenodd;clip-rule:evenodd;fill:#202746;}
	.st70{fill-rule:evenodd;clip-rule:evenodd;fill:#2945BB;}
	.st71{fill-rule:evenodd;clip-rule:evenodd;fill:#774033;}
	.st72{fill:none;stroke:#774033;stroke-width:2;}
	.st73{fill-rule:evenodd;clip-rule:evenodd;fill:#EEA013;}
	.st74{fill-rule:evenodd;clip-rule:evenodd;fill:#DB9311;}
	.st75{fill-rule:evenodd;clip-rule:evenodd;fill:#3E60EB;}
	.st76{opacity:0.1;fill-rule:evenodd;clip-rule:evenodd;fill:#FFFFFF;enable-background:new    ;}
	.st77{fill:none;stroke:#261A5E;stroke-width:2;}
	.st78{fill-rule:evenodd;clip-rule:evenodd;fill:#FF5D5C;}
	.st79{fill-rule:evenodd;clip-rule:evenodd;fill:#D95150;}
	.st80{fill-rule:evenodd;clip-rule:evenodd;fill:#03CEFA;}
	.st81{fill-rule:evenodd;clip-rule:evenodd;fill:#03BCE4;}
	.st82{fill-rule:evenodd;clip-rule:evenodd;fill:#402E92;}
	.st83{fill-rule:evenodd;clip-rule:evenodd;fill:#DC678F;}
	.st84{fill-rule:evenodd;clip-rule:evenodd;fill:#98C3AF;}
	.st85{fill-rule:evenodd;clip-rule:evenodd;fill:#19D9EB;}
	.st86{fill-rule:evenodd;clip-rule:evenodd;fill:#13C3D3;}
	.st87{fill-rule:evenodd;clip-rule:evenodd;fill:#10A6B4;}
	.st88{fill-rule:evenodd;clip-rule:evenodd;fill:#FEDD00;}
	.st89{fill-rule:evenodd;clip-rule:evenodd;fill:#358BD7;}
	.st90{fill-rule:evenodd;clip-rule:evenodd;fill:#017F5D;}
	.st91{opacity:0.2;fill:none;stroke:#FFFFFF;stroke-width:2;enable-background:new    ;}
	.st92{fill-rule:evenodd;clip-rule:evenodd;fill:#00976F;}
	.st93{fill-rule:evenodd;clip-rule:evenodd;fill:#FF2200;}
	.st94{fill-rule:evenodd;clip-rule:evenodd;fill:#EE2304;}
	.st95{opacity:0.1;fill-rule:evenodd;clip-rule:evenodd;fill:#002C46;enable-background:new    ;}
	.st96{fill-rule:evenodd;clip-rule:evenodd;fill:#FF81C3;}
	.st97{opacity:0.3;fill-rule:evenodd;clip-rule:evenodd;fill:#BD461E;enable-background:new    ;}
	.st98{fill-rule:evenodd;clip-rule:evenodd;fill:#2F170B;}
	.st99{fill-rule:evenodd;clip-rule:evenodd;fill:#FFC09F;}
	.st100{opacity:0.2;fill-rule:evenodd;clip-rule:evenodd;fill:#6A3D25;enable-background:new    ;}
	.st101{fill-rule:evenodd;clip-rule:evenodd;fill:#6A3D25;}
	.st102{fill-rule:evenodd;clip-rule:evenodd;fill:#284BF2;}
	.st103{fill-rule:evenodd;clip-rule:evenodd;fill:#EB5D2D;}
	.st104{fill-rule:evenodd;clip-rule:evenodd;fill:#FFB34D;}
	.st105{opacity:0.2;fill-rule:evenodd;clip-rule:evenodd;fill:#2F170B;enable-background:new    ;}
	.st106{opacity:0.3;fill-rule:evenodd;clip-rule:evenodd;fill:#2F170B;enable-background:new    ;}
	.st107{fill:none;stroke:#2F170B;stroke-width:2;}
	.st108{fill-rule:evenodd;clip-rule:evenodd;fill:#FF5A59;}
	.st109{fill-rule:evenodd;clip-rule:evenodd;fill:#E94E4D;}
</style>
<g id="_x32_---guy-walking-with-a-dog">
	<g id="Group-8" transform="translate(184.000000, 124.000000)">
		<g>
			<g id="Group-7_1_" transform="translate(199.631473, 289.980346)">
				<path id="Path-84" class="st98" d="M1017.5,1383c12.4,112.1-0.3,188-37.9,227.6c-56.4,59.4-89.9,66.3-89.9,119.6
					c0,35.5,0,84.9,0,148.1h62.8l-6.9-139.3l21.7-21c36.5-10.7,85-50.3,145.4-118.9C1173.1,1530.6,1141.3,1458.5,1017.5,1383z"/>
				<path id="Path-80" class="st99" d="M1307.5,927.3c-6.7,23,29,50.6,84.5,88.4c37,25.2,62.2,71.9,75.7,140
					c-55.2,17.5-112,19-170.5,4.7c-87.7-21.5-242.8-86-321.7,133s-119.5,216.2-143.1,202.9c-23.5-13.3,8.7-99.1-4.4-125.4
					s-11-17.9-11,17.4s-32.1,113.6,15.3,131c47.5,17.4,113.9-42.3,166.2-136.8c12.7,45.1,39,94.1,78.8,146.8
					c59.7,79.1-52,100.1-18.7,215c22.2,76.6,36,121.3,41.5,134.1h95.5c-54.3-32.4-75.2-70.7-62.7-114.9
					c18.7-66.3,145.8-171.4,93.6-352.1c112.3-16.2,177.1,8.3,194.4,73.6c26,98-37.4,298.5,26.1,393.4h80
					c-59.7-82.3-66.3-202-19.8-359.1c32.2,12.5,62.3,4.8,90.4-22.9c8.2,82.2,8.2,147.3,0,195.2s-5.7,110.2,7.4,186.8h92.3
					c-23.3-45.3-34.9-94.7-34.9-148.1c0-80,92.8-436.9-64.8-617.2l-18.6-60.2c17.4-55.8-2.1-92.2-58.4-109.3
					c-84.4-25.6-107.4-1.9-149.4-16.2C1329.4,913,1314.2,904.3,1307.5,927.3z"/>
				<path id="Path_41_" class="st100" d="M1081.3,1230.1l-1.2,1.9c-46,68.1,6.3,75.3,0.2,161.1l-0.2,2.6
					c-6.5,77.5,19.5,115.4,8.8,151.8c-2.8-5.8-6.5-11.9-11.4-18.4c-38.1-50.5-63.8-97.6-77.1-141.1l-1.2-8.4
					c-6.7-48.4-10-88.3-9.9-119.8c29.8-64.9,67.7-98.4,107.8-113.8C1109,1168.1,1103.8,1196.1,1081.3,1230.1L1081.3,1230.1z"/>
				<path id="Path_40_" class="st100" d="M1440.3,1630.6c-4.1-23,11.2-30.6,45.8-22.7c-12.6,70.4-12.2,131.7,1.2,183.8
					c-25.5-6.4-28.3-38.9-28.4-78.2l0-3.6C1458.8,1660.3,1447.3,1670.2,1440.3,1630.6z"/>
				<path id="Path_39_" class="st101" d="M1225.4,1408.4c-42.7-92.2,11.5-144.9,113.5-76.6c57.7,38.7,85.3,90.3,82.7,155l-0.5-2
					c-17.1-64.7-80.8-89.4-191-74.1l-3.4,0.5L1225.4,1408.4z"/>
				<path id="Path_38_" class="st98" d="M1550.6,1439.9c26.4,0,46.5,31.2,47.6,61.2l-0.5-4.9l0,0c-27.6,27.3-57.2,35.1-88.8,23.6
					l-1.7-0.6l1-4.6C1518.9,1464.8,1533,1439.9,1550.6,1439.9z"/>
				<path id="Path_37_" class="st101" d="M1512.3,957.6l0.4,1.4c5.8,21.2,4.9,39.9-2.7,56.2l-3.3,7.2c-11.6,25.5-20.6,51.5,3.3,66.1
					c25.9,15.8,57.9,9.3,68.9-34.1l0.4-1.5c0.8-3.4,1.7-6.5,2.5-9.1c-0.5,2-1,4-1.6,6l-0.9,3.1l18.6,60.2
					c4.5,5.2,8.8,10.5,12.9,15.9c-21,21.1-54.6,24.8-100.8,11c-85.6-25.6-14-103.1-3.3-138.6c5.5-18.1,7.4-32.3,5.8-42.6
					L1512.3,957.6z"/>
				<path id="Path_36_" class="st98" d="M1307.5,927.3c4.3-14.8,12.1-16.5,28.3-12c1.3,18.8-7.6,28.3-26.5,28.4
					C1306.7,938,1306,932.5,1307.5,927.3z"/>
				<path id="Path_35_" class="st58" d="M1586.3,1075.8l11.1,35.8c-33.5,22.5-76.8,37-129.7,43.5c-2.1-10.4-4.4-20.4-7.1-29.8
					C1525.1,1112.9,1567,1096.4,1586.3,1075.8z"/>
				<ellipse id="Oval_10_" class="st98" cx="1445.2" cy="963.5" rx="11.1" ry="11.1"/>
				<path id="Path-85" class="st100" d="M1565.5,1210.2c-12.1,0-25.8-3-25.8,49.9c0,52.9-92,107.4-42.3,130
					c49.7,22.6,125.4,6.2,119.4-66.1S1577.6,1210.2,1565.5,1210.2z"/>
				<path id="Path-86" class="st100" d="M1421.8,1232.2c-13.7,0-28.8,13.5-28.8,37.2s16.3,63.3,55.7,35.5
					S1435.5,1232.2,1421.8,1232.2z"/>
				<path id="Path-86-Copy" class="st100" d="M1143.1,1530.1c-13.7,0-28.8,13.5-28.8,37.2s16.3,63.3,55.7,35.5
					C1209.6,1574.9,1156.9,1530.1,1143.1,1530.1z"/>
				<ellipse id="Oval_9_" class="st100" cx="1145.5" cy="1481.2" rx="22.2" ry="22.2"/>
			</g>
			<g id="Group-6_1_">
				<g id="Group-11_2_" transform="translate(121.191704, 119.377806)">
					<path id="Path-71_1_" class="st0" d="M695.2,441.2l45.4,153.5c7.9,26.8,18.7,52.6,32.2,77l128.7,233.3
						c6.3,11.4,15.7,20.6,27.2,26.7c11.6,6.1,21.8,14.5,30,24.8l1.6,2c7.1,8.8,6.5,21.5-1.3,29.6l0,0l0,0
						c6.5,14.6,1.9,31.9-11.1,41.2c-27,19.5-49,24.2-66.2,14.1c-16.4-9.6-26.5-29-30.5-58.1c-3-22.2-11.9-43.2-25.7-60.9
						L693.5,754.6c-11.8-15.1-22.4-31.2-31.8-47.9l-79.8-142l0,0l14.3-140.2L695.2,441.2z"/>
					<path id="Path-75_1_" class="st11" d="M959.1,988.2l-31.8,16.2c-12.1-11.1-11.4-22.2,2-33.2c-22.7,12.5-42,11-58-4.4"/>
					<path id="Path-76_1_" class="st11" d="M918.9,981.5c-6.8,4.1-9,12.9-5,19.8l15.1,25.9l0,0l-22.1-29.6c-3-4-8.5-5.2-12.9-2.7
						c-4.2,2.4-5.8,7.7-3.5,12l15.4,28.4l0,0l-1.1,0.9l-21.1-25.5c-3-3.6-8.1-4.5-12.2-2.3c-3.8,2.1-5.2,7-3.1,10.8c0,0,0,0,0,0.1
						l11.2,19.9l0,0"/>
					<line id="Path-78_1_" class="st11" x1="752.6" y1="635" x2="720.4" y2="657.1"/>
					<path id="Path-81_1_" class="st11" d="M856,1010.3c2.6-24.9,23.6-34.5,63-28.8"/>
				</g>
				<g id="Group-3" transform="translate(1.780243, 167.836140)">
					<g id="Group-2_2_" transform="translate(0.146484, 0.063860)">
						<polygon id="Path-73" class="st102" points="526,901.5 459.6,1208.5 240.3,1882.9 538.6,1800.2 739.6,1166.8 						"/>
						<line id="Path-5_2_" class="st91" x1="391.1" y1="1838.9" x2="558.4" y2="1363.1"/>
						<path id="Path-72" class="st67" d="M446.8,577.9c-62,96.7-79.3,212.1-51.8,346c25.4,124,67.4,249,125.9,375
							c9.9,21.3,17.8,43.4,23.7,66.1l133.1,515l0,0l262.9-75.3l-146.2-522c-2.9-10.3-6.2-20.4-9.9-30.4l-40.1-107.8l0,0l33.6-275.9
							c7.9-65.1-0.9-131.1-25.5-191.9l-45.9-113.3l0,0L446.8,577.9z"/>
						<polygon id="Path_34_" class="st35" points="653,865.4 748.9,1106.8 744.3,1144.6 						"/>
						
							<g id="Group-5_2_" transform="translate(171.263304, 345.741980) rotate(5.000000) translate(-171.263304, -345.741980) translate(118.263304, 313.741980)">
							<g id="Group-4_4_" transform="translate(0.556221, 0.079345)">
								<path id="Path-17_2_" class="st1" d="M945.1,1482.4c9.5-62.6,24.9-92.4,46.4-89.6c21.5,2.8,4.4,40.3-51,112.3
									c42.8-88.8,73.3-118.8,91.5-89.8c8.7,13.9-13.6,51.5-82.1,90"/>
								<path id="Path-16_2_" class="st2" d="M713.3,1504.1l188.4-70c17,25,39.8,43,68.3,53.8c42.8,16.2,108.9,27.7,146.2,109.4
									l-257.9,26.2l-38.8-26.2v26.2l-106.2,11.9V1504.1z"/>
								<g id="Group-9_2_" transform="translate(45.710331, 19.066335)">
									<line id="Path-25_2_" class="st3" x1="844.2" y1="1482.6" x2="904" y2="1447.3"/>
									<line id="Path-25-Copy_2_" class="st3" x1="870.3" y1="1492.6" x2="930.1" y2="1457.2"/>
									<line id="Path-25-Copy-2_2_" class="st3" x1="896.4" y1="1502.5" x2="956.2" y2="1467.1"/>
								</g>
							</g>
						</g>
						
							<g id="Group-5-Copy_1_" transform="translate(62.450449, 345.741980) rotate(5.000000) translate(-62.450449, -345.741980) translate(9.450449, 313.741980)">
							<g id="Group-4_3_" transform="translate(0.556221, 0.079345)">
								<path id="Path-17_1_" class="st1" d="M634.7,1509.6c9.5-62.6,24.9-92.4,46.4-89.6c21.5,2.8,4.4,40.3-51,112.3
									c42.8-88.8,73.3-118.8,91.5-89.8c8.7,13.9-13.6,51.5-82.1,90"/>
								<path id="Path-16_1_" class="st2" d="M402.8,1531.3l188.4-70c17,25,39.8,43,68.3,53.8c42.8,16.2,108.9,27.7,146.2,109.4
									l-257.9,26.2l-38.8-26.2v26.2l-106.2,11.9L402.8,1531.3z"/>
								<g id="Group-9_1_" transform="translate(45.710331, 19.066335)">
									<line id="Path-25_1_" class="st3" x1="533.7" y1="1509.8" x2="593.5" y2="1474.4"/>
									<line id="Path-25-Copy_1_" class="st3" x1="559.9" y1="1519.7" x2="619.6" y2="1484.4"/>
									<line id="Path-25-Copy-2_1_" class="st3" x1="586" y1="1529.7" x2="645.7" y2="1494.3"/>
								</g>
							</g>
						</g>
						<line id="Path-3_2_" class="st3" x1="632.4" y1="822.3" x2="744.3" y2="1144.6"/>
						<path id="Path-4_2_" class="st91" d="M792.6,1847.7l-130.1-505.5c-6.3-24.5-15-48.4-26-71.2l-56.2-116.9
							c-6.9-14.3-12.8-28.9-17.9-43.9l-74.9-221.9c-13.4-39.8-20.3-81.6-20.3-123.6V714l0,0"/>
					</g>
				</g>
				<path id="Path-69" class="st58" d="M742.1,583.6l-13.9,196.2c-29.7,22.7-82.5,35.6-158.2,38.5s-129.8-9.9-162-38.5l32.3-187.2
					l-41.4,51.9L271,559.4l118.8-164c17.8-24.6,43.1-42.9,72.1-52.1c29.5-9.4,60.4-13.7,91.4-12.7l105.6,3.4
					c29.2,0.9,57.6,9.5,82.5,24.7c24.5,15,42.9,38.3,52,65.6l48.2,146.1l0,0L742.1,583.6z"/>
				<path id="Path_33_" class="st103" d="M501,482.5C438.1,668.4,516.1,733.2,734.9,677l0.4,2l-7.1,100.8
					c-29.7,22.7-82.5,35.6-158.2,38.5l-6.5,0.2c-72.4,2-124.2-10.9-155.5-38.7l32.3-187.2L501,482.5z"/>
				<polygon id="Path_32_" class="st35" points="750,470.9 762.8,580.9 742.1,583.6 739.1,626.2 738.3,627.2 				"/>
				<g id="Group_5_" transform="translate(77.782728, 0.000000)">
					<path id="Path-65" class="st67" d="M463.5,197.4c-5.7-52,8.9-86.9,43.7-104.7C559.4,66,615,95,622.4,149.2
						c4.9,36.1-18.7,59.7-70.8,70.9L463.5,197.4z"/>
					<path id="Path-64" class="st0" d="M621.4,155.1l4.1,105.1c0.5,13.2-7.9,25-20.5,28.9l-7.3,2.2c-9.1,2.8-18.9,2.5-27.9-0.9l0,0
						l0,0l1.3,57c0.6,26.9-20.7,49.3-47.6,49.9c-0.4,0-0.8,0-1.2,0c-26.4,0-47.8-21.4-47.8-47.8c0-0.7,0-1.4,0-2.1l4.8-108.2l0,0
						c-16.5-15.4-23.6-29.1-21.4-41c3.3-17.9,25.3-14.5,35.2,0l50.1-51.9c12.4-12.8,29.4-20,47.2-20h0.9
						C607.6,126.4,620.8,139.1,621.4,155.1z"/>
					<ellipse id="Oval_8_" class="st4" cx="572.4" cy="188.6" rx="4.4" ry="4.4"/>
					<path id="Rectangle-Copy" class="st4" d="M577.2,167.7l-26.7,5.2c-2.2,0.4-3.7,2.6-3.2,4.8c0,0,0,0,0,0.1
						c0.5,2.3,2.7,3.7,4.9,3.3l26.7-5.2c2.2-0.4,3.7-2.6,3.2-4.8c0,0,0,0,0-0.1C581.7,168.7,579.5,167.3,577.2,167.7z"/>
					<ellipse id="Oval-Copy_2_" class="st4" cx="607.9" cy="188.6" rx="4.4" ry="4.4"/>
					<path id="Rectangle-Copy-2_1_" class="st4" d="M601.1,167.7l26.7,5.2c2.2,0.4,3.7,2.6,3.2,4.8c0,0,0,0,0,0.1
						c-0.5,2.3-2.7,3.7-4.9,3.3l-26.7-5.2c-2.2-0.4-3.7-2.6-3.2-4.8c0,0,0,0,0-0.1C596.6,168.7,598.8,167.3,601.1,167.7z"/>
					<path id="Path_31_" class="st68" d="M506.3,243.9l83.8,6.8c7.5,15.1,12.6,27.9,15.4,38.3l-0.6,0.2l-7.3,2.2
						c-8.6,2.6-17.8,2.5-26.3-0.3l-1.6-0.6l0.7,30.1c-37-10.8-58.3-35.7-63.9-74.7L506.3,243.9z"/>
					<path id="Path_30_" class="st69" d="M506.6,184.5L512,199c7.3,19.7,26.3,32.5,47.3,31.9l65-2l1.2,31.3
						c0.5,13.2-7.9,29.5-20.5,33.3l-1.1,0.3c-12.6,3.9-23.7,2.3-38.9-1.7l-2.3-0.4l0,0.3l-21.5-6.2c-11.1-3.2-20.9-9.9-27.9-19.1
						c-7.1-9.3-11.8-20.1-13.8-31.6l-6.3-36.9L506.6,184.5z"/>
					<path id="Path-66" class="st70" d="M493.3,198.3l-3.2-3.9l44.9-56.2c18.2-22.8,46.5-35.3,75.6-33.3l34.3,2.3
						c4.5,0.3,7.9,4.2,7.6,8.7c-0.1,1.1-0.4,2.1-0.8,3.1c-3.6,7.3-8.5,13.8-14.4,19.3l-15.5,14.4l0,0c-28.1-0.9-49.9-0.3-65.1,1.8
						C541.3,156.8,520.2,171.3,493.3,198.3z"/>
					<path id="Path-67" class="st11" d="M486.5,204.2c-6.3-7.9-12.1-9.9-17.4-6c-5.3,3.9-3.5,11.9,5.5,24.1"/>
					<path id="Path-68" class="st13" d="M577.1,250h28.4c-0.9,8.9-5.6,13.3-14.2,13.3S578,258.9,577.1,250z"/>
					<path id="Path-2_2_" class="st11" d="M592.8,194.4l3.1,10.7c1,3.5,3,6.7,5.7,9.2l0.9,0.8c2,1.8,2.7,4.7,1.9,7.2
						c-0.8,2.5-3.1,4.2-5.7,4.2h-8.2l0,0"/>
				</g>
				<path id="Path-70" class="st0" d="M281.6,566l-29.9,49c-11.1,18.2-16.9,39-16.9,60.3c0,20.8,8.5,40.7,23.5,55l175,167.6l0,0
					l87.3-42l20.8,3.3c7.2,1.1,14.5-1,19.9-5.8c3-2.6,3.3-7.2,0.6-10.2c-0.7-0.8-1.6-1.5-2.6-1.9l-2-0.9c-8.4-3.5-17.1-6.1-26.1-7.6
					l-5.7-1c-12.5-2.1-23.9-8.2-32.6-17.3L365.5,680.1l0,0l24.1-42.6L281.6,566z"/>
				<line id="Path-74" class="st3" x1="417.4" y1="907.8" x2="520.6" y2="856"/>
				<line id="Path-77" class="st11" x1="325.1" y1="674.4" x2="365.5" y2="680.1"/>
				<line id="Path-79" class="st11" x1="437.1" y1="597" x2="499.4" y2="487.8"/>
				<line id="Path-6_1_" class="st3" x1="281.8" y1="536.6" x2="402.4" y2="619.6"/>
				<line id="Path-7_2_" class="st3" x1="767.9" y1="560.7" x2="841.6" y2="549.1"/>
			</g>
			<path id="Path-82" class="st11" d="M1080.3,1107.5c85.1-3.9,150.5,38.1,196.3,126.2c68.6,132.1,57.2,356.1,379.8,203.3"/>
			<ellipse id="Oval_7_" class="st11" cx="1664.9" cy="1433.5" rx="8.9" ry="8.9"/>
		</g>
	</g>
</g>
</svg>
