<svg width="19" height="19" viewBox="0 0 19 19" fill="none" xmlns="http://www.w3.org/2000/svg">
  <path
    d="M9.50002 3.5625C5.54169 3.5625 2.16127 6.02458 0.791687 9.5C2.16127 12.9754 5.54169 15.4375 9.50002 15.4375C13.4584 15.4375 16.8388 12.9754 18.2084 9.5C16.8388 6.02458 13.4584 3.5625 9.50002 3.5625ZM9.50002 13.4583C7.31502 13.4583 5.54169 11.685 5.54169 9.5C5.54169 7.315 7.31502 5.54167 9.50002 5.54167C11.685 5.54167 13.4584 7.315 13.4584 9.5C13.4584 11.685 11.685 13.4583 9.50002 13.4583ZM9.50002 7.125C8.18585 7.125 7.12502 8.18583 7.12502 9.5C7.12502 10.8142 8.18585 11.875 9.50002 11.875C10.8142 11.875 11.875 10.8142 11.875 9.5C11.875 8.18583 10.8142 7.125 9.50002 7.125Z"
    fill="#919191" />
</svg>